# xmcd
#
# Track frame offsets:
#	150
#	16600
#	38280
#	70285
#	93982
#	116332
#
# Disc length: 1948 seconds
#
# Revision: 1
# Processed by: cddbd v1.5.2PL0 Copyright (c) Steve Scherf et al.
# Submitted via: audiograbber 1.83.01
#
DISCID=37079a06
DTITLE=Tv Off - Music Machine (EP)
DYEAR=2010
DGENRE=Electronic
TTITLE0=Music Machine (Original)
TTITLE1=Music Machine (Eero Johannes Remix)
TTITLE2=Music Machine (KA SO RE Remix)
TTITLE3=Boogieman (TV OFF Remix)
TTITLE4=Boogieman (501 Remix)
TTITLE5=Boogieman (Sharkslayer Remix)
EXTD=TR.
EXTT0=
EXTT1=
EXTT2=
EXTT3=
EXTT4=
EXTT5=
PLAYORDER=
